<?xml version="1.0" encoding="UTF-8"?>
<svg width="100px" height="100px" viewBox="0 0 100 100" version="1.1" xmlns="http://www.w3.org/2000/svg" xmlns:xlink="http://www.w3.org/1999/xlink">
    <!-- Generator: Sketch 49 (51002) - http://www.bohemiancoding.com/sketch -->
    <title>maintenance</title>
    <desc>Created with Sketch.</desc>
    <defs></defs>
    <g id="Page-1" stroke="none" stroke-width="1" fill="none" fill-rule="evenodd">
        <g id="Главная" transform="translate(-1142.000000, -1731.000000)" fill-rule="nonzero">
            <g id="Услуги" transform="translate(0.000000, 1520.000000)">
                <g id="Список-услуг" transform="translate(224.000000, 173.000000)">
                    <g id="Group-8" transform="translate(784.000000, 0.000000)">
                        <g id="maintenance" transform="translate(134.000000, 38.000000)">
                            <path d="M91.6666667,6.66666667 L80,6.66666667 L80,5 C80,2.24333333 77.7566667,0 75,0 C72.2433333,0 70,2.24333333 70,5 L70,6.66666667 L30,6.66666667 L30,5 C30,2.24333333 27.7566667,0 25,0 C22.2433333,0 20,2.24333333 20,5 L20,6.66666667 L8.33333333,6.66666667 C3.73833333,6.66666667 0,10.405 0,15 L0,91.6666667 C0,96.2616667 3.73833333,100 8.33333333,100 L91.6666667,100 C96.2616667,100 100,96.2616667 100,91.6666667 L100,15 C100,10.405 96.2616667,6.66666667 91.6666667,6.66666667 Z M73.3333333,5 C73.3333333,4.08 74.08,3.33333333 75,3.33333333 C75.92,3.33333333 76.6666667,4.08 76.6666667,5 L76.6666667,18.3333333 C76.6666667,19.2533333 75.92,20 75,20 C74.08,20 73.3333333,19.2533333 73.3333333,18.3333333 L73.3333333,5 Z M70.0083333,18.4166667 C70.055,21.135 72.2716667,23.3333333 75,23.3333333 C77.7283333,23.3333333 79.945,21.135 79.9916667,18.4166667 C81.895,18.8 83.3333333,20.485 83.3333333,22.5 C83.3333333,24.7983333 81.465,26.6666667 79.1666667,26.6666667 L70.8333333,26.6666667 C68.535,26.6666667 66.6666667,24.7983333 66.6666667,22.5 C66.6666667,20.485 68.105,18.8 70.0083333,18.4166667 Z M23.3333333,5 C23.3333333,4.08 24.08,3.33333333 25,3.33333333 C25.92,3.33333333 26.6666667,4.08 26.6666667,5 L26.6666667,18.3333333 C26.6666667,19.2533333 25.92,20 25,20 C24.08,20 23.3333333,19.2533333 23.3333333,18.3333333 L23.3333333,5 Z M20.0083333,18.4166667 C20.055,21.135 22.2716667,23.3333333 25,23.3333333 C27.7283333,23.3333333 29.945,21.135 29.9916667,18.4166667 C31.895,18.8 33.3333333,20.485 33.3333333,22.5 C33.3333333,24.7983333 31.465,26.6666667 29.1666667,26.6666667 L20.8333333,26.6666667 C18.535,26.6666667 16.6666667,24.7983333 16.6666667,22.5 C16.6666667,20.485 18.105,18.8 20.0083333,18.4166667 Z M96.6666667,91.6666667 C96.6666667,94.4233333 94.4233333,96.6666667 91.6666667,96.6666667 L8.33333333,96.6666667 C5.57666667,96.6666667 3.33333333,94.4233333 3.33333333,91.6666667 L3.33333333,36.6666667 L96.6666667,36.6666667 L96.6666667,91.6666667 Z M96.6666667,33.3333333 L3.33333333,33.3333333 L3.33333333,15 C3.33333333,12.2433333 5.57666667,10 8.33333333,10 L20,10 L20,15.085 C16.26,15.505 13.3333333,18.65 13.3333333,22.5 C13.3333333,26.635 16.6983333,30 20.8333333,30 L29.1666667,30 C33.3016667,30 36.6666667,26.635 36.6666667,22.5 C36.6666667,18.65 33.74,15.505 30,15.085 L30,10 L70,10 L70,15.085 C66.26,15.505 63.3333333,18.65 63.3333333,22.5 C63.3333333,26.635 66.6983333,30 70.8333333,30 L79.1666667,30 C83.3016667,30 86.6666667,26.635 86.6666667,22.5 C86.6666667,18.65 83.74,15.505 80,15.085 L80,10 L91.6666667,10 C94.4233333,10 96.6666667,12.2433333 96.6666667,15 L96.6666667,33.3333333 Z" id="Shape" fill="#FECE0B"></path>
                            <rect id="Rectangle-path" fill="#FFFFFF" x="20" y="40" width="3.33333333" height="3.33333333"></rect>
                            <rect id="Rectangle-path" fill="#FFFFFF" x="13.3333333" y="40" width="3.33333333" height="3.33333333"></rect>
                            <rect id="Rectangle-path" fill="#FFFFFF" x="6.66666667" y="40" width="3.33333333" height="3.33333333"></rect>
                            <path d="M90.2733333,78.3566667 L80.2733333,76.69 C79.7466667,76.605 79.2016667,76.775 78.8216667,77.155 L77.6433333,78.3333333 L55,78.3333333 L55,75 C55,74.0783333 54.255,73.3333333 53.3333333,73.3333333 L46.4583333,73.3333333 C45.9983333,73.3333333 45.5583333,73.5233333 45.2433333,73.86 L43.2616667,75.975 L40.935,73.7866667 C40.625,73.4966667 40.2166667,73.3333333 39.7916667,73.3333333 L10,73.3333333 C9.07833333,73.3333333 8.33333333,74.0783333 8.33333333,75 L8.33333333,91.6666667 C8.33333333,92.5883333 9.07833333,93.3333333 10,93.3333333 L40,93.3333333 C40.4433333,93.3333333 40.8666667,93.1583333 41.1783333,92.845 L43.3333333,90.69 L45.4883333,92.845 C45.8,93.1583333 46.2233333,93.3333333 46.6666667,93.3333333 L53.3333333,93.3333333 C54.255,93.3333333 55,92.5883333 55,91.6666667 L55,88.3333333 L77.6433333,88.3333333 L78.8216667,89.5116667 C79.1366667,89.8266667 79.5616667,90 80,90 C80.0916667,90 80.1816667,89.9916667 80.2733333,89.9766667 L90.2733333,88.31 C91.0766667,88.1766667 91.6666667,87.4816667 91.6666667,86.6666667 L91.6666667,80 C91.6666667,79.185 91.0766667,78.49 90.2733333,78.3566667 Z M51.6666667,80 L51.6666667,86.6666667 L51.6666667,90 L47.3566667,90 L44.5116667,87.155 C43.86,86.5033333 42.8066667,86.5033333 42.155,87.155 L39.31,90 L11.6666667,90 L11.6666667,76.6666667 L39.1316667,76.6666667 L42.1916667,79.5483333 C42.5133333,79.8516667 42.955,80.0366667 43.3866667,80 C43.83,79.9866667 44.2483333,79.7983333 44.55,79.475 L47.1816667,76.6666667 L51.6666667,76.6666667 L51.6666667,80 Z M88.3333333,85.255 L80.5716667,86.5466667 L79.5116667,85.4866667 C79.2,85.175 78.7766667,85 78.3333333,85 L55,85 L55,81.6666667 L78.3333333,81.6666667 C78.7766667,81.6666667 79.2,81.4916667 79.5116667,81.1783333 L80.5716667,80.1183333 L88.3333333,81.4116667 L88.3333333,85.255 Z" id="Shape" fill="#FECE0B"></path>
                            <path d="M88.3333333,61.6666667 L77.5,61.6666667 L73.75,56.6666667 L77.5,51.6666667 L88.3333333,51.6666667 C88.975,51.6666667 89.5566667,51.2983333 89.835,50.7233333 C90.1116667,50.145 90.035,49.46 89.635,48.9583333 L82.9683333,40.625 C82.6516667,40.23 82.1733333,40 81.6666667,40 L71.6666667,40 C71.2233333,40 70.8,40.175 70.4883333,40.4883333 L60.9766667,50 L13.3333333,50 C9.65666667,50 6.66666667,52.99 6.66666667,56.6666667 C6.66666667,60.3433333 9.65666667,63.3333333 13.3333333,63.3333333 L60.9766667,63.3333333 L70.4883333,72.845 C70.8,73.1583333 71.2233333,73.3333333 71.6666667,73.3333333 L81.6666667,73.3333333 C82.1733333,73.3333333 82.6516667,73.1033333 82.9683333,72.7083333 L89.635,64.375 C90.035,63.8733333 90.1116667,63.1883333 89.835,62.61 C89.5566667,62.035 88.975,61.6666667 88.3333333,61.6666667 Z M80.8666667,69.9983333 L72.3583333,69.9983333 L62.8466667,60.4866667 C62.5333333,60.175 62.11,60 61.6666667,60 L13.3333333,60 C11.495,60 10,58.505 10,56.6666667 C10,54.8283333 11.495,53.3333333 13.3333333,53.3333333 L61.6666667,53.3333333 C62.11,53.3333333 62.5333333,53.1583333 62.845,52.845 L72.3566667,43.3333333 L80.865,43.3333333 L84.8633333,48.3333333 L76.6666667,48.3333333 C76.1433333,48.3333333 75.6483333,48.58 75.3333333,49 L70.3333333,55.6666667 C69.8883333,56.2583333 69.8883333,57.0733333 70.3333333,57.665 L75.3333333,64.3316667 C75.6466667,64.7516667 76.1416667,64.9983333 76.6666667,64.9983333 L84.865,64.9983333 L80.8666667,69.9983333 Z" id="Shape" fill="#FFFFFF"></path>
                            <rect id="Rectangle-path" fill="#FFFFFF" x="15" y="80" width="11.6666667" height="3.33333333"></rect>
                            <rect id="Rectangle-path" fill="#FFFFFF" x="30" y="80" width="3.33333333" height="3.33333333"></rect>
                        </g>
                    </g>
                </g>
            </g>
        </g>
    </g>
</svg>