<?xml version="1.0" encoding="UTF-8"?>
<svg width="100px" height="100px" viewBox="0 0 100 100" version="1.1" xmlns="http://www.w3.org/2000/svg" xmlns:xlink="http://www.w3.org/1999/xlink">
    <!-- Generator: Sketch 49 (51002) - http://www.bohemiancoding.com/sketch -->
    <title>purchasing</title>
    <desc>Created with Sketch.</desc>
    <defs></defs>
    <g id="Page-1" stroke="none" stroke-width="1" fill="none" fill-rule="evenodd">
        <g id="Главная" transform="translate(-750.000000, -1731.000000)" fill-rule="nonzero">
            <g id="Услуги" transform="translate(0.000000, 1520.000000)">
                <g id="Список-услуг" transform="translate(224.000000, 173.000000)">
                    <g id="Group-8" transform="translate(392.000000, 0.000000)">
                        <g id="purchasing" transform="translate(134.000000, 38.000000)">
                            <path d="M77.3854839,82.2516129 L66.583871,82.2516129 L62.1516129,79.2967742 L48.5580645,74.4758065 C47.2645161,74.0209677 45.8741935,74.1129032 44.6532258,74.733871 C43.4290323,75.3548387 42.5354839,76.4209677 42.1387097,77.7322581 C41.4483871,80.0064516 42.4709677,82.466129 44.5693548,83.5774194 L48.0596774,85.4322581 L42.9822581,85.4483871 L40.8967742,80.2290323 C40.2112903,78.516129 38.5774194,77.4112903 36.7322581,77.4112903 C35.2919355,77.4112903 33.9306452,78.1096774 33.0903226,79.2790323 C32.25,80.45 32.0225806,81.9629032 32.4822581,83.3290323 L32.9693548,84.7758065 L29.4306452,82.8419355 C28.3048387,82.2290323 26.9612903,82.1080645 25.7451613,82.5145161 C24.5258065,82.9225806 23.5241935,83.8258065 22.9935484,84.9967742 C21.9580645,87.283871 22.9096774,89.9467742 25.1629032,91.0580645 L33.1241935,94.9870968 L49.65,98.3483871 L71.0935484,98.3806452 L77.3854839,97.1225806 L77.3854839,100 L100,100 L100,79.0322581 L77.3854839,79.0322581 L77.3854839,82.2516129 Z M35.7096774,81.1629032 C36.2532258,80.4064516 37.5564516,80.5693548 37.9,81.4290323 L39.5112903,85.4596774 L36.6048387,85.4693548 L35.5370968,82.3 C35.4064516,81.9112903 35.4693548,81.4967742 35.7096774,81.1629032 Z M80.6112903,82.2580645 L83.8709677,82.2580645 L83.8709677,93.5483871 L87.0967742,93.5483871 L87.0967742,82.2580645 L96.7741935,82.2580645 L96.7741935,96.7741935 L80.6112903,96.7741935 L80.6112903,82.2580645 Z M77.3870968,93.8322581 L70.7741935,95.1548387 L50.1241935,95.1548387 L34.3612903,92.0016129 L26.5903226,88.1677419 C25.9080645,87.8306452 25.6177419,87.0225806 25.933871,86.3290323 C26.0967742,85.9677419 26.3935484,85.7 26.7693548,85.5758065 C27.1419355,85.4483871 27.5419355,85.4854839 27.8854839,85.6758065 L33.4258065,88.7032258 L48.7354839,88.7032258 L55.0983871,85.5209677 L46.0822581,80.7274194 C45.3435484,80.3354839 44.9822581,79.4693548 45.2274194,78.6677419 C45.3677419,78.2048387 45.6822581,77.8274194 46.1145161,77.6096774 C46.5451613,77.3903226 47.033871,77.3596774 47.4919355,77.5177419 L60.5322581,82.0935484 L65.6080645,85.4774194 L77.3870968,85.4774194 L77.3870968,93.8322581 Z" id="Shape" fill="#FFFFFF"></path>
                            <path d="M11.2903226,51.7580645 L11.2903226,45.1612903 L33.8709677,45.1612903 L33.8709677,51.7580645 C29.3016129,52.5290323 25.8064516,56.5032258 25.8064516,61.2903226 C25.8064516,66.6274194 30.1467742,70.9677419 35.483871,70.9677419 C40.8209677,70.9677419 45.1612903,66.6274194 45.1612903,61.2903226 C45.1612903,56.5048387 41.666129,52.5306452 37.0967742,51.7580645 L37.0967742,45.1612903 L62.9032258,45.1612903 L62.9032258,51.7580645 C58.333871,52.5290323 54.8387097,56.5032258 54.8387097,61.2903226 C54.8387097,66.6274194 59.1790323,70.9677419 64.516129,70.9677419 C69.8532258,70.9677419 74.1935484,66.6274194 74.1935484,61.2903226 C74.1935484,56.5048387 70.6983871,52.5306452 66.1290323,51.7580645 L66.1290323,45.1612903 L88.7096774,45.1612903 L88.7096774,51.7580645 C84.1403226,52.5290323 80.6451613,56.5032258 80.6451613,61.2903226 C80.6451613,66.6274194 84.9854839,70.9677419 90.3225806,70.9677419 C95.6596774,70.9677419 100,66.6274194 100,61.2903226 C100,56.5048387 96.5048387,52.5306452 91.9354839,51.7580645 L91.9354839,41.9354839 L79.0322581,41.9354839 L79.0322581,16.1290323 L64.516129,16.1290323 L64.516129,19.3548387 L75.8064516,19.3548387 L75.8064516,41.9354839 L51.6129032,41.9354839 L51.6129032,32.2580645 L53.2258065,32.2580645 C57.6725806,32.2580645 61.2903226,28.6403226 61.2903226,24.1935484 C61.2903226,19.7467742 57.6725806,16.1290323 53.2258065,16.1290323 L46.7741935,16.1290323 C44.1064516,16.1290323 41.9354839,13.9580645 41.9354839,11.2903226 C41.9354839,8.62258065 44.1064516,6.4516129 46.7741935,6.4516129 L53.2258065,6.4516129 C55.8935484,6.4516129 58.0645161,8.62258065 58.0645161,11.2903226 L61.2903226,11.2903226 C61.2903226,6.84354839 57.6725806,3.22580645 53.2258065,3.22580645 L51.6129032,3.22580645 L51.6129032,0 L48.3870968,0 L48.3870968,3.22580645 L46.7741935,3.22580645 C42.3274194,3.22580645 38.7096774,6.84354839 38.7096774,11.2903226 C38.7096774,15.7370968 42.3274194,19.3548387 46.7741935,19.3548387 L53.2258065,19.3548387 C55.8935484,19.3548387 58.0645161,21.5258065 58.0645161,24.1935484 C58.0645161,26.8612903 55.8935484,29.0322581 53.2258065,29.0322581 L46.7741935,29.0322581 C44.1064516,29.0322581 41.9354839,26.8612903 41.9354839,24.1935484 L38.7096774,24.1935484 C38.7096774,28.6403226 42.3274194,32.2580645 46.7741935,32.2580645 L48.3870968,32.2580645 L48.3870968,41.9354839 L24.1935484,41.9354839 L24.1935484,19.3548387 L35.483871,19.3548387 L35.483871,16.1290323 L20.9677419,16.1290323 L20.9677419,41.9354839 L8.06451613,41.9354839 L8.06451613,51.7580645 C3.49516129,52.5306452 0,56.5048387 0,61.2903226 C0,66.6274194 4.34032258,70.9677419 9.67741935,70.9677419 C15.0145161,70.9677419 19.3548387,66.6274194 19.3548387,61.2903226 C19.3548387,56.5048387 15.8596774,52.5306452 11.2903226,51.7580645 Z M96.7741935,61.2903226 C96.7741935,64.8483871 93.8806452,67.7419355 90.3225806,67.7419355 C86.7645161,67.7419355 83.8709677,64.8483871 83.8709677,61.2903226 C83.8709677,57.7322581 86.7645161,54.8387097 90.3225806,54.8387097 C93.8806452,54.8387097 96.7741935,57.7322581 96.7741935,61.2903226 Z M70.9677419,61.2903226 C70.9677419,64.8483871 68.0741935,67.7419355 64.516129,67.7419355 C60.9580645,67.7419355 58.0645161,64.8483871 58.0645161,61.2903226 C58.0645161,57.7322581 60.9580645,54.8387097 64.516129,54.8387097 C68.0741935,54.8387097 70.9677419,57.7322581 70.9677419,61.2903226 Z M41.9354839,61.2903226 C41.9354839,64.8483871 39.0419355,67.7419355 35.483871,67.7419355 C31.9258065,67.7419355 29.0322581,64.8483871 29.0322581,61.2903226 C29.0322581,57.7322581 31.9258065,54.8387097 35.483871,54.8387097 C39.0419355,54.8387097 41.9354839,57.7322581 41.9354839,61.2903226 Z M9.67741935,67.7419355 C6.11935484,67.7419355 3.22580645,64.8483871 3.22580645,61.2903226 C3.22580645,57.7322581 6.11935484,54.8387097 9.67741935,54.8387097 C13.2354839,54.8387097 16.1290323,57.7322581 16.1290323,61.2903226 C16.1290323,64.8483871 13.2354839,67.7419355 9.67741935,67.7419355 Z" id="Shape" fill="#FECE0B"></path>
                            <rect id="Rectangle-path" fill="#FFFFFF" x="8.06451613" y="59.6774194" width="3.22580645" height="3.22580645"></rect>
                            <rect id="Rectangle-path" fill="#FFFFFF" x="33.8709677" y="59.6774194" width="3.22580645" height="3.22580645"></rect>
                            <rect id="Rectangle-path" fill="#FFFFFF" x="62.9032258" y="59.6774194" width="3.22580645" height="3.22580645"></rect>
                            <rect id="Rectangle-path" fill="#FFFFFF" x="88.7096774" y="59.6774194" width="3.22580645" height="3.22580645"></rect>
                        </g>
                    </g>
                </g>
            </g>
        </g>
    </g>
</svg>