<?xml version="1.0" encoding="UTF-8"?>
<svg width="100px" height="100px" viewBox="0 0 100 100" version="1.1" xmlns="http://www.w3.org/2000/svg" xmlns:xlink="http://www.w3.org/1999/xlink">
    <!-- Generator: Sketch 49 (51002) - http://www.bohemiancoding.com/sketch -->
    <title>warehouse (1)</title>
    <desc>Created with Sketch.</desc>
    <defs></defs>
    <g id="Page-1" stroke="none" stroke-width="1" fill="none" fill-rule="evenodd">
        <g id="Главная" transform="translate(-358.000000, -1731.000000)" fill-rule="nonzero">
            <g id="Услуги" transform="translate(0.000000, 1520.000000)">
                <g id="Список-услуг" transform="translate(224.000000, 173.000000)">
                    <g id="Group-8">
                        <g id="warehouse-(1)" transform="translate(134.000000, 38.000000)">
                            <polygon id="Shape" fill="#FECE0B" points="93.484252 96.7716535 93.484252 18.4055118 50 0 6.51574803 18.4055118 6.51574803 96.7716535 0.0787401575 96.7716535 0.0787401575 100 9.72440945 100 9.72440945 20.5314961 50 3.50393701 90.2755906 20.5314961 90.2755906 100 99.9212598 100 99.9212598 96.7716535"></polygon>
                            <polygon id="Shape" fill="#FECE0B" points="14.5669291 33.9566929 14.5669291 100 17.7952756 100 17.7952756 37.1850394 82.2047244 37.1850394 82.2047244 100 85.4330709 100 85.4330709 33.9566929"></polygon>
                            <path d="M22.6181102,77.4409449 L22.6181102,100 L48.3858268,100 L48.3858268,77.4409449 L22.6181102,77.4409449 Z M33.8779528,80.6692913 L37.1062992,80.6692913 L37.1062992,83.8976378 L33.8779528,83.8976378 L33.8779528,80.6692913 Z M45.1771654,96.7716535 L25.8464567,96.7716535 L25.8464567,80.6692913 L30.6692913,80.6692913 L30.6692913,87.1062992 L40.3346457,87.1062992 L40.3346457,80.6692913 L45.1771654,80.6692913 L45.1771654,96.7716535 Z" id="Shape" fill="#FFFFFF"></path>
                            <path d="M51.6141732,77.4409449 L51.6141732,100 L77.3818898,100 L77.3818898,77.4409449 L51.6141732,77.4409449 Z M62.8740157,80.6692913 L66.1023622,80.6692913 L66.1023622,83.8976378 L62.8740157,83.8976378 L62.8740157,80.6692913 Z M74.1535433,96.7716535 L54.8228346,96.7716535 L54.8228346,80.6692913 L59.6456693,80.6692913 L59.6456693,87.1062992 L69.3110236,87.1062992 L69.3110236,80.6692913 L74.1535433,80.6692913 L74.1535433,96.7716535 Z" id="Shape" fill="#FFFFFF"></path>
                            <path d="M37.1062992,74.2322835 L62.8740157,74.2322835 L62.8740157,51.6732283 L37.1062992,51.6732283 L37.1062992,74.2322835 Z M48.3858268,54.9015748 L51.6141732,54.9015748 L51.6141732,58.1299213 L48.3858268,58.1299213 L48.3858268,54.9015748 Z M40.3346457,54.9015748 L45.1574803,54.9015748 L45.1574803,61.3385827 L54.8228346,61.3385827 L54.8228346,54.9015748 L59.6456693,54.9015748 L59.6456693,71.003937 L40.3346457,71.003937 L40.3346457,54.9015748 Z" id="Shape" fill="#FFFFFF"></path>
                            <rect id="Rectangle-path" fill="#FFFFFF" x="48.3858268" y="19.4685039" width="3.22834646" height="3.22834646"></rect>
                            <rect id="Rectangle-path" fill="#FFFFFF" x="54.8228346" y="19.4685039" width="3.22834646" height="3.22834646"></rect>
                            <rect id="Rectangle-path" fill="#FFFFFF" x="41.9488189" y="19.4685039" width="3.22834646" height="3.22834646"></rect>
                        </g>
                    </g>
                </g>
            </g>
        </g>
    </g>
</svg>