<?xml version="1.0" encoding="UTF-8"?>
<svg width="70px" height="76px" viewBox="0 0 70 76" version="1.1" xmlns="http://www.w3.org/2000/svg" xmlns:xlink="http://www.w3.org/1999/xlink">
    <!-- Generator: Sketch 49 (51002) - http://www.bohemiancoding.com/sketch -->
    <title>calendar (3)</title>
    <desc>Created with Sketch.</desc>
    <defs></defs>
    <g id="Page-1" stroke="none" stroke-width="1" fill="none" fill-rule="evenodd">
        <g id="Главная" transform="translate(-968.000000, -859.000000)" fill-rule="nonzero">
            <g id="О-компании" transform="translate(224.000000, 750.000000)">
                <g id="Group-12" transform="translate(726.000000, 94.000000)">
                    <g id="calendar-(3)" transform="translate(18.000000, 15.000000)">
                        <path d="M68.75,5.03125 L60,5.03125 L60,1.2578125 C60,0.562242187 59.44125,0 58.75,0 L50,0 C49.30875,0 48.75,0.562242187 48.75,1.2578125 L48.75,5.03125 L21.25,5.03125 L21.25,1.2578125 C21.25,0.562242187 20.69125,0 20,0 L11.25,0 C10.55875,0 10,0.562242187 10,1.2578125 L10,5.03125 L1.25,5.03125 C0.55875,5.03125 0,5.59349219 0,6.2890625 L0,20.125 L0,74.2109375 C0,74.9065078 0.55875,75.46875 1.25,75.46875 L68.75,75.46875 C69.44125,75.46875 70,74.9065078 70,74.2109375 L70,20.125 L70,6.2890625 C70,5.59349219 69.44125,5.03125 68.75,5.03125 Z M51.25,2.515625 L57.5,2.515625 L57.5,6.2890625 L57.5,10.0625 L51.25,10.0625 L51.25,6.2890625 L51.25,2.515625 Z M12.5,2.515625 L18.75,2.515625 L18.75,6.2890625 L18.75,10.0625 L12.5,10.0625 L12.5,6.2890625 L12.5,2.515625 Z M2.5,7.546875 L10,7.546875 L10,11.3203125 C10,12.0158828 10.55875,12.578125 11.25,12.578125 L20,12.578125 C20.69125,12.578125 21.25,12.0158828 21.25,11.3203125 L21.25,7.546875 L48.75,7.546875 L48.75,11.3203125 C48.75,12.0158828 49.30875,12.578125 50,12.578125 L58.75,12.578125 C59.44125,12.578125 60,12.0158828 60,11.3203125 L60,7.546875 L67.5,7.546875 L67.5,18.8671875 L2.5,18.8671875 L2.5,7.546875 Z M2.5,72.953125 L2.5,21.3828125 L67.5,21.3828125 L67.5,72.953125 L2.5,72.953125 Z" id="Shape" fill="#FECE0B"></path>
                        <path d="M44.3544408,28.4375 L35.6907895,28.4375 L33.2154605,28.4375 L24.5518092,28.4375 L22.0764803,28.4375 L10.9375,28.4375 L10.9375,39.6390086 L10.9375,42.1282328 L10.9375,50.8405172 L10.9375,53.3297414 L10.9375,64.53125 L22.0764803,64.53125 L24.5518092,64.53125 L33.2154605,64.53125 L35.6907895,64.53125 L44.3544408,64.53125 L46.8297697,64.53125 L57.96875,64.53125 L57.96875,53.3297414 L57.96875,50.8405172 L57.96875,42.1282328 L57.96875,39.6390086 L57.96875,28.4375 L46.8297697,28.4375 L44.3544408,28.4375 Z M35.6907895,30.9267241 L44.3544408,30.9267241 L44.3544408,39.6390086 L35.6907895,39.6390086 L35.6907895,30.9267241 Z M44.3544408,50.8405172 L35.6907895,50.8405172 L35.6907895,42.1282328 L44.3544408,42.1282328 L44.3544408,50.8405172 Z M24.5518092,42.1282328 L33.2154605,42.1282328 L33.2154605,50.8405172 L24.5518092,50.8405172 L24.5518092,42.1282328 Z M24.5518092,30.9267241 L33.2154605,30.9267241 L33.2154605,39.6390086 L24.5518092,39.6390086 L24.5518092,30.9267241 Z M13.4128289,30.9267241 L22.0764803,30.9267241 L22.0764803,39.6390086 L13.4128289,39.6390086 L13.4128289,30.9267241 Z M13.4128289,42.1282328 L22.0764803,42.1282328 L22.0764803,50.8405172 L13.4128289,50.8405172 L13.4128289,42.1282328 Z M22.0764803,62.0420259 L13.4128289,62.0420259 L13.4128289,53.3297414 L22.0764803,53.3297414 L22.0764803,62.0420259 Z M33.2154605,62.0420259 L24.5518092,62.0420259 L24.5518092,53.3297414 L33.2154605,53.3297414 L33.2154605,62.0420259 Z M44.3544408,62.0420259 L35.6907895,62.0420259 L35.6907895,53.3297414 L44.3544408,53.3297414 L44.3544408,62.0420259 Z M55.4934211,62.0420259 L46.8297697,62.0420259 L46.8297697,53.3297414 L55.4934211,53.3297414 L55.4934211,62.0420259 Z M55.4934211,50.8405172 L46.8297697,50.8405172 L46.8297697,42.1282328 L55.4934211,42.1282328 L55.4934211,50.8405172 Z M55.4934211,30.9267241 L55.4934211,39.6390086 L46.8297697,39.6390086 L46.8297697,30.9267241 L55.4934211,30.9267241 Z" id="Shape" fill="#FFFFFF"></path>
                    </g>
                </g>
            </g>
        </g>
    </g>
</svg>