<?xml version="1.0" encoding="UTF-8"?>
<svg width="70px" height="70px" viewBox="0 0 70 70" version="1.1" xmlns="http://www.w3.org/2000/svg" xmlns:xlink="http://www.w3.org/1999/xlink">
    <!-- Generator: Sketch 49 (51002) - http://www.bohemiancoding.com/sketch -->
    <title>industrial-robot</title>
    <desc>Created with Sketch.</desc>
    <defs></defs>
    <g id="Page-1" stroke="none" stroke-width="1" fill="none" fill-rule="evenodd">
        <g id="Главная" transform="translate(-968.000000, -1170.000000)" fill-rule="nonzero">
            <g id="О-компании" transform="translate(224.000000, 750.000000)">
                <g id="Group-12" transform="translate(726.000000, 399.000000)">
                    <g id="industrial-robot" transform="translate(18.000000, 21.000000)">
                        <path d="M46.2903226,60.9677419 L46.2903226,58.7096774 L48.5483871,58.7096774 L48.5483871,51.9354839 L46.2903226,51.9354839 L46.2903226,49.6774194 L50.8064516,49.6774194 L50.8064516,39.516129 L41.4140323,39.516129 L54.5040323,28.1716129 C55.7414516,27.0979032 56.4516129,25.5432258 56.4516129,23.906129 L56.4516129,19.391129 L57.5264516,18.4698387 C58.2783871,17.8240323 58.7096774,16.8869355 58.7096774,15.8967742 L58.7096774,13.5483871 L58.7096774,11.2903226 L58.7096774,7.90322581 C58.7096774,4.79048387 56.1772581,2.25806452 53.0645161,2.25806452 L27.0967742,2.25806452 L27.0967742,4.51612903 L22.5806452,4.51612903 L22.5806452,0 L14.6774194,0 L13.5483871,0 L5.37870968,0 L0,2.68935484 L0,6.77419355 L9.03225806,6.77419355 L9.03225806,9.03225806 L0,9.03225806 L0,13.1170968 L5.37870968,15.8064516 L13.5483871,15.8064516 L14.6774194,15.8064516 L22.5806452,15.8064516 L22.5806452,11.2903226 L27.0967742,11.2903226 L27.0967742,13.5483871 L43.3356452,13.5483871 L24.2708065,30.6058065 C20.7493548,31.2279032 18.0645161,34.3033871 18.0645161,37.9998387 C18.0645161,40.0072581 18.8458065,41.893871 20.266129,43.3141935 L26.6293548,49.6774194 L30.483871,49.6774194 L30.483871,51.9354839 L28.2258065,51.9354839 L28.2258065,58.7096774 L30.483871,58.7096774 L30.483871,60.9677419 L18.0645161,60.9677419 L18.0645161,70 L70,70 L70,60.9677419 L46.2903226,60.9677419 Z M13.5483871,13.5483871 L5.9116129,13.5483871 L2.25806452,11.7216129 L2.25806452,11.2903226 L11.2903226,11.2903226 L11.2903226,4.51612903 L2.25806452,4.51612903 L2.25806452,4.08483871 L5.9116129,2.25806452 L13.5483871,2.25806452 L13.5483871,13.5483871 Z M20.3225806,13.5483871 L15.8064516,13.5483871 L15.8064516,2.25806452 L20.3225806,2.25806452 L20.3225806,13.5483871 Z M27.0967742,9.03225806 L22.5806452,9.03225806 L22.5806452,6.77419355 L27.0967742,6.77419355 L27.0967742,9.03225806 Z M46.2903226,56.4516129 L44.0322581,56.4516129 L44.0322581,54.1935484 L46.2903226,54.1935484 L46.2903226,56.4516129 Z M44.0322581,58.7096774 L44.0322581,60.9677419 L32.7419355,60.9677419 L32.7419355,58.7096774 L44.0322581,58.7096774 Z M35,56.4516129 L35,54.1935484 L37.2580645,54.1935484 L37.2580645,56.4516129 L35,56.4516129 Z M39.516129,56.4516129 L39.516129,54.1935484 L41.7741935,54.1935484 L41.7741935,56.4516129 L39.516129,56.4516129 Z M32.7419355,51.9354839 L32.7419355,49.6774194 L44.0322581,49.6774194 L44.0322581,51.9354839 L32.7419355,51.9354839 Z M54.1935484,23.906129 C54.1935484,24.8883871 53.7679032,25.8209677 53.025,26.4656452 L37.9648387,39.516129 L37.7254839,39.516129 L35.5306452,37.3212903 L54.1935484,21.3262903 L54.1935484,23.906129 Z M31.6129032,11.2903226 L29.3548387,11.2903226 L29.3548387,4.51612903 L31.6129032,4.51612903 L31.6129032,11.2903226 Z M33.8709677,11.2903226 L33.8709677,4.51612903 L53.0645161,4.51612903 C54.9319355,4.51612903 56.4516129,6.03580645 56.4516129,7.90322581 L56.4516129,11.2903226 L45.8590323,11.2903226 L33.8709677,11.2903226 Z M46.7216129,13.5483871 L56.4516129,13.5483871 L56.4516129,15.8967742 C56.4516129,16.2275806 56.3082258,16.5391935 56.0575806,16.7548387 L33.9308065,35.7214516 L30.8959677,32.6866129 C29.9430645,31.7337097 28.7767742,31.0754839 27.5077419,30.7412903 L46.7216129,13.5483871 Z M27.5641935,47.4193548 L21.8625806,41.7177419 C20.8690323,40.7241935 20.3225806,39.4043548 20.3225806,37.9998387 C20.3225806,35.1004839 22.681129,32.7419355 25.5804839,32.7419355 C26.985,32.7419355 28.3048387,33.2883871 29.2983871,34.2819355 L36.7906452,41.7741935 L48.5483871,41.7741935 L48.5483871,47.4193548 L27.5641935,47.4193548 Z M30.483871,54.1935484 L32.7419355,54.1935484 L32.7419355,56.4516129 L30.483871,56.4516129 L30.483871,54.1935484 Z M67.7419355,67.7419355 L65.483871,67.7419355 L65.483871,65.483871 L63.2258065,65.483871 L63.2258065,67.7419355 L60.9677419,67.7419355 L60.9677419,65.483871 L58.7096774,65.483871 L58.7096774,67.7419355 L56.4516129,67.7419355 L56.4516129,65.483871 L54.1935484,65.483871 L54.1935484,67.7419355 L51.9354839,67.7419355 L51.9354839,65.483871 L49.6774194,65.483871 L49.6774194,67.7419355 L47.4193548,67.7419355 L47.4193548,65.483871 L45.1612903,65.483871 L45.1612903,67.7419355 L42.9032258,67.7419355 L42.9032258,65.483871 L40.6451613,65.483871 L40.6451613,67.7419355 L38.3870968,67.7419355 L38.3870968,65.483871 L36.1290323,65.483871 L36.1290323,67.7419355 L33.8709677,67.7419355 L33.8709677,65.483871 L31.6129032,65.483871 L31.6129032,67.7419355 L29.3548387,67.7419355 L29.3548387,65.483871 L27.0967742,65.483871 L27.0967742,67.7419355 L24.8387097,67.7419355 L24.8387097,65.483871 L22.5806452,65.483871 L22.5806452,67.7419355 L20.3225806,67.7419355 L20.3225806,63.2258065 L67.7419355,63.2258065 L67.7419355,67.7419355 Z" id="Shape" fill="#FECE0B"></path>
                        <path d="M25.4032258,35 C23.8462903,35 22.5806452,36.2656452 22.5806452,37.8225806 C22.5806452,39.3795161 23.8462903,40.6451613 25.4032258,40.6451613 C26.9601613,40.6451613 28.2258065,39.3795161 28.2258065,37.8225806 C28.2258065,36.2656452 26.9601613,35 25.4032258,35 Z M25.4032258,38.3870968 C25.0927419,38.3870968 24.8387097,38.1330645 24.8387097,37.8225806 C24.8387097,37.5120968 25.0927419,37.2580645 25.4032258,37.2580645 C25.7137097,37.2580645 25.9677419,37.5120968 25.9677419,37.8225806 C25.9677419,38.1330645 25.7137097,38.3870968 25.4032258,38.3870968 Z" id="Shape" fill="#FFFFFF"></path>
                    </g>
                </g>
            </g>
        </g>
    </g>
</svg>