<?xml version="1.0" encoding="UTF-8"?>
<svg width="70px" height="69px" viewBox="0 0 70 69" version="1.1" xmlns="http://www.w3.org/2000/svg" xmlns:xlink="http://www.w3.org/1999/xlink">
    <!-- Generator: Sketch 49 (51002) - http://www.bohemiancoding.com/sketch -->
    <title>industry</title>
    <desc>Created with Sketch.</desc>
    <defs></defs>
    <g id="Page-1" stroke="none" stroke-width="1" fill="none" fill-rule="evenodd">
        <g id="Главная" transform="translate(-968.000000, -1325.000000)" fill-rule="nonzero">
            <g id="О-компании" transform="translate(224.000000, 750.000000)">
                <g id="Group-12" transform="translate(726.000000, 553.000000)">
                    <g id="industry" transform="translate(18.000000, 22.000000)">
                        <path d="M68.2405848,38.5608577 L53.5621442,44.8515789 L53.5621442,39.6311891 C53.5621442,38.7952827 52.7074074,38.2315984 51.9390448,38.5609942 L35.857193,45.4531969 L32.6030799,45.4531969 L32.6030799,36.5769786 C32.6030799,35.0477583 31.3645029,33.8091813 29.8352827,33.8091813 L26.055692,33.8091813 C24.5264717,33.8091813 23.2878947,35.0477583 23.2878947,36.5769786 L23.2878947,45.4531969 L19.7947173,45.4531969 L18.547271,45.4531969 L16.2984016,15.0929825 C16.2533723,14.4849513 15.7468616,14.0146004 15.137193,14.0146004 L8.15083821,14.0146004 C7.54116959,14.0146004 7.03465887,14.4849513 6.98962963,15.0929825 L4.74076023,45.4531969 L3.49331384,45.4531969 C2.90001949,45.4531969 2.40155945,45.8992593 2.33606238,46.4890058 L0.00723196881,67.4480702 C-0.069454191,68.1378363 0.470487329,68.7410916 1.16448343,68.7410916 L8.14851852,68.7410916 C8.14933723,68.7410916 8.15001949,68.7412281 8.15083821,68.7412281 L15.137193,68.7412281 C15.1380117,68.7412281 15.138694,68.7410916 15.1395127,68.7410916 L22.1235478,68.7410916 L36.0962573,68.7410916 L41.9159454,68.7410916 C41.9167641,68.7410916 41.9174464,68.7412281 41.9182651,68.7412281 L46.5757895,68.7412281 C46.5766082,68.7412281 46.5772904,68.7410916 46.5781092,68.7410916 L52.3977973,68.7410916 L58.2174854,68.7410916 C58.2183041,68.7410916 58.2189864,68.7412281 58.2198051,68.7412281 L62.8773294,68.7412281 C62.8781481,68.7412281 62.8788304,68.7410916 62.8796491,68.7410916 L68.6993372,68.7410916 C69.3424366,68.7410916 69.8636842,68.2197076 69.8636842,67.5767446 L69.8636842,39.6313255 C69.8636842,38.7952827 69.0089474,38.2315984 68.2405848,38.5608577 Z M25.6167251,36.5769786 C25.6167251,36.3339571 25.8126706,36.1380117 26.055692,36.1380117 L29.8352827,36.1380117 C30.0783041,36.1380117 30.2742495,36.3339571 30.2742495,36.5769786 L30.2742495,45.4531969 L25.6167251,45.4531969 L25.6167251,36.5769786 Z M24.4523782,47.7818908 L31.4387329,47.7818908 L34.9319103,47.7818908 L34.9319103,66.4121248 L23.16577,66.4121248 L21.0957895,47.7818908 L24.4523782,47.7818908 Z M9.23222222,16.3432943 L14.0559454,16.3432943 L16.2121637,45.4530604 L7.07586745,45.4530604 L9.23222222,16.3432943 Z M4.53553606,47.7818908 L5.82214425,47.7818908 L17.4660234,47.7818908 L18.7526316,47.7818908 L19.6734113,56.0683626 L20.8227485,66.4121248 L16.3016764,66.4121248 L16.3016764,58.2615595 C16.3016764,57.61846 15.7804288,57.0972125 15.1373294,57.0972125 L8.15097466,57.0972125 C7.50787524,57.0972125 6.98662768,57.61846 6.98662768,58.2615595 L6.98662768,66.4121248 L2.4654191,66.4121248 L4.53553606,47.7818908 Z M9.31532164,66.4121248 L9.31532164,59.4259064 L13.972846,59.4259064 L13.972846,66.4121248 L9.31532164,66.4121248 Z M37.2607407,47.3853606 L51.2334503,41.3970175 L51.2334503,46.6175439 L51.2334503,66.4122612 L47.7402729,66.4122612 L47.7402729,59.4260429 C47.7402729,58.7829435 47.2190253,58.2616959 46.5759259,58.2616959 L41.9184016,58.2616959 C41.2753021,58.2616959 40.7540546,58.7830799 40.7540546,59.4260429 L40.7540546,66.4122612 L37.2607407,66.4122612 L37.2608772,47.3853606 L37.2607407,47.3853606 Z M43.0826121,66.4121248 L43.0826121,60.5902534 L45.4114425,60.5902534 L45.4114425,66.4121248 L43.0826121,66.4121248 Z M61.7129825,66.4121248 L59.384152,66.4121248 L59.384152,60.5902534 L61.7129825,60.5902534 L61.7129825,66.4121248 Z M67.5349903,66.4121248 L64.0416764,66.4121248 L64.0416764,59.4259064 C64.0416764,58.782807 63.5204288,58.2615595 62.8773294,58.2615595 L58.2198051,58.2615595 C57.5767057,58.2615595 57.0554581,58.7829435 57.0554581,59.4259064 L57.0554581,66.4121248 L53.5622807,66.4121248 L53.5622807,47.3852242 L67.5349903,41.3968811 L67.5349903,66.4121248 Z" id="Shape" fill="#FECE0B"></path>
                        <path d="M13.2312281,11.6063548 C13.3102339,11.5755166 13.4694737,11.517115 13.6951657,11.4402924 C14.0770955,11.3102534 14.4988694,11.1798051 14.9464327,11.0582261 C15.8696686,10.8072904 16.7747563,10.6282651 17.6064327,10.5521248 C19.6702729,10.3631384 20.7695322,10.7982846 20.9798051,11.9034113 C20.9997271,12.1135478 21.0807797,12.6046394 21.2274659,13.2267251 C21.4710331,14.2593957 21.8176218,15.2934308 22.2901559,16.2687914 C23.700117,19.1798635 25.9399805,21.0009552 29.1101754,21.0009552 C30.3367446,21.0346589 31.5723197,20.9920858 32.76846,20.8208382 C34.3671345,20.5918713 35.6370955,20.1780117 36.4133723,19.4713255 C38.1531384,21.2110916 39.8473294,22.307076 41.4685185,22.8867251 C42.5938402,23.2889864 43.5425926,23.3992398 44.2596491,23.3357895 C46.6064912,23.3079532 48.7711696,22.3347758 50.7667836,20.7481092 C51.4068811,20.2392788 51.9877583,19.6983821 52.5038207,19.154347 C54.4605458,20.6861598 56.4955945,21.1464133 58.1809162,21.0111891 C58.5880897,21.0005458 58.8776413,20.9969981 59.1581871,20.9903119 C67.8684795,20.7923197 72.3282846,10.3889279 66.2966862,4.14009747 C66.1588694,3.99723197 66.0525731,3.89489279 65.9857115,3.8345809 C65.2365887,3.1594152 64.0418129,3.69103314 64.0418129,4.69955166 C64.0418129,7.74734893 63.3272125,9.41670565 62.2332749,10.1430409 C61.7195322,10.4841715 61.1782261,10.5783236 60.7534503,10.5383431 C60.7373489,10.5368421 60.548499,10.5215595 60.548499,10.5215595 C58.3671735,10.5215595 56.1314035,8.52294347 54.2523197,5.5817154 C53.1504678,3.85532164 51.8287914,2.4377193 50.284152,1.40504873 C48.6661014,0.323937622 47.3947758,-0.0394346979 46.5075634,0.0421637427 C43.6589864,0.057582846 41.3297466,1.04208577 39.5137037,2.66750487 C39.2639961,2.89101365 39.0353021,3.11493177 38.8269396,3.33598441 C38.2854971,2.58331384 37.4805653,2.03040936 36.4938791,1.67194932 C35.4987329,1.31048733 34.5173684,1.19723197 33.7646979,1.20623782 C31.0739961,1.20637427 28.842729,1.6768616 27.0509747,2.47046784 C26.2307602,2.8337037 25.6144055,3.20867446 25.1892203,3.53506823 L23.2880312,3.53506823 C19.2512281,3.53506823 16.1996101,4.73912281 14.0447563,6.76134503 C12.7245809,8.00019493 12.0007018,9.25692008 11.7032359,10.1553216 C11.3933528,11.0907018 12.3130409,11.9639961 13.2312281,11.6063548 Z M23.2880312,5.86376218 L25.6168616,5.86376218 C25.9225146,5.86376218 26.2160234,5.74354776 26.4338012,5.52904483 C26.6327485,5.33309942 27.1415789,4.97723197 27.9939961,4.59966862 C29.4882846,3.93773879 31.3983431,3.53506823 33.7675634,3.53506823 C34.2896296,3.52879142 35.0159649,3.6125731 35.6987719,3.86064327 C36.7329435,4.2362963 37.2607407,4.8362768 37.2607407,5.86376218 C37.2607407,7.1002924 38.9337817,7.48426901 39.4730409,6.37150097 C39.5182066,6.27830409 39.6346004,6.07580897 39.82577,5.8008577 C40.155848,5.32614035 40.5687524,4.84842105 41.0668031,4.40263158 C42.488499,3.13021442 44.2982651,2.3705848 46.5759259,2.3705848 L46.7883821,2.35107212 C46.7784211,2.3557115 46.9367057,2.3708577 47.2026511,2.44672515 C47.6880117,2.58522417 48.2837622,2.86904483 48.9903119,3.34116959 C50.2492203,4.18280702 51.3518908,5.3654386 52.2897271,6.83489279 C54.5481481,10.3698246 57.2625926,12.8090448 60.4674464,12.8497076 C61.4463548,12.9423587 62.504269,12.7584211 63.5215205,12.0829825 C64.765692,11.2567641 65.6418519,9.86617934 66.0705848,7.86224172 C68.2333528,12.5623392 64.892729,18.5303509 59.1038791,18.6620273 C58.818694,18.6688499 58.5240936,18.6722612 58.2198051,18.6722612 L58.047193,18.6850877 C57.6024951,18.7212476 57.0745614,18.6913645 56.4635283,18.5479532 C55.5472515,18.3329045 54.6414815,17.9014425 53.7846979,17.1965302 C53.5931189,17.0389279 53.4050877,16.8683626 53.2211501,16.684425 C52.7233723,16.1866472 51.9011111,16.2409552 51.4731969,16.8 C51.3832749,16.9174854 51.1940156,17.1439961 50.9161988,17.4426901 C50.4463938,17.9479727 49.9093177,18.454347 49.3172515,18.9251072 C47.67423,20.231501 45.9487914,21.0009552 44.2469591,21.0009552 L44.0507407,21.0176023 C43.6632164,21.0506238 43.0513645,20.9795322 42.2521637,20.6938012 C40.9630994,20.2328655 39.5611891,19.3260039 38.0839571,17.8487719 L36.9196101,16.684425 L34.5907797,14.3555945 C34.1359844,13.9009357 33.3988694,13.9009357 32.9440741,14.3555945 C32.4894152,14.8103899 32.4894152,15.5475049 32.9440741,16.0023002 L34.738694,17.7969201 C34.4032943,18.0634113 33.6305653,18.3446394 32.4379727,18.5154776 C31.3935673,18.6650292 30.2775244,18.7035088 29.3313645,18.6789474 C29.2474464,18.6767641 29.1871345,18.6745809 29.164347,18.6734893 C26.9626901,18.6722612 25.4431579,17.4368226 24.3857895,15.2537232 C23.9945809,14.4460624 23.7007992,13.5699025 23.4939376,12.6922417 C23.3703119,12.1681287 23.304269,11.7676413 23.2807992,11.5568226 C22.7688304,8.84633528 20.5011306,7.94861598 17.3939766,8.23311891 C16.8065497,8.28688109 16.2007018,8.3817154 15.5850292,8.50998051 C17.3608187,6.84294347 19.8423392,5.86376218 23.2880312,5.86376218 Z" id="Shape" fill="#FFFFFF"></path>
                        <path d="M25.6167251,62.9190838 C26.2598246,62.9190838 26.7810721,62.3978363 26.7810721,61.7547368 L26.7810721,52.4395517 C26.7810721,51.7964522 26.2598246,51.2752047 25.6167251,51.2752047 C24.9736257,51.2752047 24.4523782,51.7964522 24.4523782,52.4395517 L24.4523782,61.7547368 C24.4523782,62.3976998 24.9737622,62.9190838 25.6167251,62.9190838 Z" id="Shape" fill="#FECE0B"></path>
                        <path d="M31.4387329,62.9190838 C32.0818324,62.9190838 32.6030799,62.3978363 32.6030799,61.7547368 L32.6030799,52.4395517 C32.6030799,51.7964522 32.0818324,51.2752047 31.4387329,51.2752047 C30.7956335,51.2752047 30.274386,51.7964522 30.274386,52.4395517 L30.274386,61.7547368 C30.274386,62.3976998 30.7956335,62.9190838 31.4387329,62.9190838 Z" id="Shape" fill="#FECE0B"></path>
                        <path d="M41.9182651,54.7683821 L46.5757895,54.7683821 C47.2188889,54.7683821 47.7401365,54.2471345 47.7401365,53.6040351 L47.7401365,48.9465107 C47.7401365,48.3034113 47.2188889,47.7821637 46.5757895,47.7821637 L41.9182651,47.7821637 C41.2751657,47.7821637 40.7539181,48.3034113 40.7539181,48.9465107 L40.7539181,53.6040351 C40.7539181,54.2471345 41.2751657,54.7683821 41.9182651,54.7683821 Z M43.0826121,50.1108577 L45.4114425,50.1108577 L45.4114425,52.4396881 L43.0826121,52.4396881 L43.0826121,50.1108577 Z" id="Shape" fill="#FFFFFF"></path>
                        <path d="M58.2198051,54.7683821 L62.8773294,54.7683821 C63.5204288,54.7683821 64.0416764,54.2471345 64.0416764,53.6040351 L64.0416764,48.9465107 C64.0416764,48.3034113 63.5204288,47.7821637 62.8773294,47.7821637 L58.2198051,47.7821637 C57.5767057,47.7821637 57.0554581,48.3034113 57.0554581,48.9465107 L57.0554581,53.6040351 C57.0553216,54.2471345 57.5767057,54.7683821 58.2198051,54.7683821 Z M59.384152,50.1108577 L61.7129825,50.1108577 L61.7129825,52.4396881 L59.384152,52.4396881 L59.384152,50.1108577 Z" id="Shape" fill="#FFFFFF"></path>
                    </g>
                </g>
            </g>
        </g>
    </g>
</svg>