<?xml version="1.0" encoding="UTF-8"?>
<svg width="70px" height="70px" viewBox="0 0 70 70" version="1.1" xmlns="http://www.w3.org/2000/svg" xmlns:xlink="http://www.w3.org/1999/xlink">
    <!-- Generator: Sketch 49 (51002) - http://www.bohemiancoding.com/sketch -->
    <title>warehouse (2)</title>
    <desc>Created with Sketch.</desc>
    <defs></defs>
    <g id="Page-1" stroke="none" stroke-width="1" fill="none" fill-rule="evenodd">
        <g id="Главная" transform="translate(-968.000000, -1016.000000)" fill-rule="nonzero">
            <g id="О-компании" transform="translate(224.000000, 750.000000)">
                <g id="Group-12" transform="translate(726.000000, 248.000000)">
                    <g id="warehouse-(2)" transform="translate(18.000000, 18.000000)">
                        <path d="M69.4237305,19.9940234 L35.5903516,0.160644531 C35.2344727,-0.04703125 34.7969727,-0.0540039062 34.436582,0.14546875 L0.603203125,18.8122266 C0.231054687,19.0163477 0,19.4083203 0,19.8329687 L0,68.8329687 C0,69.4781445 0.522675781,69.9995898 1.16662109,69.9995898 L7,69.9995898 C7.64394531,69.9995898 8.16662109,69.4781445 8.16662109,68.8329687 L8.16662109,27.9997266 L61.8332422,27.9997266 L61.8332422,68.8331055 C61.8332422,69.4782812 62.3546875,69.9997266 62.9998633,69.9997266 L68.8332422,69.9997266 C69.478418,69.9997266 69.9998633,69.4782812 69.9998633,68.8331055 L69.9998633,20.9997266 C70,20.5854687 69.7807031,20.202793 69.4237305,19.9940234 Z M67.6666211,67.6663477 L64.1666211,67.6663477 L64.1666211,26.8329687 C64.1666211,26.1890234 63.6451758,25.6663477 63,25.6663477 L7,25.6663477 C6.35605469,25.6663477 5.83337891,26.1890234 5.83337891,26.8329687 L5.83337891,67.6663477 L2.33337891,67.6663477 L2.33337891,20.5213477 L34.9825,2.50796875 L67.6666211,21.6681445 L67.6666211,67.6663477 Z" id="Shape" fill="#FECE0B"></path>
                        <path d="M58.3333789,53.6663477 L44.3333789,53.6663477 C43.6882031,53.6663477 43.1667578,54.187793 43.1667578,54.8329687 L43.1667578,68.8329688 C43.1667578,69.4781445 43.6882031,69.9995898 44.3333789,69.9995898 L58.3333789,69.9995898 C58.9785547,69.9995898 59.5,69.4781445 59.5,68.8329688 L59.5,54.8329688 C59.5,54.187793 58.9785547,53.6663477 58.3333789,53.6663477 Z M57.1666211,67.6663477 L45.5,67.6663477 L45.5,55.9997266 L57.1666211,55.9997266 L57.1666211,67.6663477 Z" id="Shape" fill="#FFFFFF"></path>
                        <path d="M52.5,54.8329688 L52.5,58.3329688 L50.1666211,58.3329688 L50.1666211,54.8329688 L47.8332422,54.8329688 L47.8332422,59.4995898 C47.8332422,60.1447656 48.3546875,60.6662109 48.9998633,60.6662109 L53.6664844,60.6662109 C54.3116602,60.6662109 54.8331055,60.1447656 54.8331055,59.4995898 L54.8331055,54.8329688 L52.5,54.8329688 Z" id="Shape" fill="#FFFFFF"></path>
                        <path d="M44.3333789,53.6663477 L30.3333789,53.6663477 C29.6894336,53.6663477 29.1667578,54.187793 29.1667578,54.8329687 L29.1667578,68.8329688 C29.1667578,69.4781445 29.6894336,69.9995898 30.3333789,69.9995898 L44.3333789,69.9995898 C44.9785547,69.9995898 45.5,69.4781445 45.5,68.8329688 L45.5,54.8329688 C45.5,54.187793 44.9785547,53.6663477 44.3333789,53.6663477 Z M43.1666211,67.6663477 L31.5,67.6663477 L31.5,55.9997266 L43.1666211,55.9997266 L43.1666211,67.6663477 Z" id="Shape" fill="#FFFFFF"></path>
                        <path d="M38.5,54.8329688 L38.5,58.3329688 L36.1666211,58.3329688 L36.1666211,54.8329688 L33.8332422,54.8329688 L33.8332422,59.4995898 C33.8332422,60.1447656 34.355918,60.6662109 34.9998633,60.6662109 L39.6664844,60.6662109 C40.3116602,60.6662109 40.8331055,60.1447656 40.8331055,59.4995898 L40.8331055,54.8329688 L38.5,54.8329688 Z" id="Shape" fill="#FFFFFF"></path>
                        <path d="M58.3333789,39.6663477 L44.3333789,39.6663477 C43.6882031,39.6663477 43.1667578,40.187793 43.1667578,40.8329687 L43.1667578,54.8329688 C43.1667578,55.4781445 43.6882031,55.9995898 44.3333789,55.9995898 L58.3333789,55.9995898 C58.9785547,55.9995898 59.5,55.4781445 59.5,54.8329688 L59.5,40.8329687 C59.5,40.187793 58.9785547,39.6663477 58.3333789,39.6663477 Z M57.1666211,53.6663477 L45.5,53.6663477 L45.5,41.9997266 L57.1666211,41.9997266 L57.1666211,53.6663477 Z" id="Shape" fill="#FFFFFF"></path>
                        <path d="M52.5,40.8329688 L52.5,44.3329688 L50.1666211,44.3329688 L50.1666211,40.8329688 L47.8332422,40.8329688 L47.8332422,45.4995898 C47.8332422,46.1447656 48.3546875,46.6662109 48.9998633,46.6662109 L53.6664844,46.6662109 C54.3116602,46.6662109 54.8331055,46.1447656 54.8331055,45.4995898 L54.8331055,40.8329688 L52.5,40.8329688 Z" id="Shape" fill="#FFFFFF"></path>
                        <rect id="Rectangle-path" fill="#FECE0B" x="7" y="34.9997266" width="56" height="2.33337891"></rect>
                        <rect id="Rectangle-path" fill="#FECE0B" x="7" y="30.3329687" width="56" height="2.33337891"></rect>
                        <path d="M40.8333789,16.3329687 L29.1667578,16.3329687 C28.5228125,16.3329687 28.0001367,16.8556445 28.0001367,17.4995898 L28.0001367,22.1662109 C28.0001367,22.8101562 28.5228125,23.332832 29.1667578,23.332832 L40.8333789,23.332832 C41.4785547,23.332832 42,22.8101562 42,22.1662109 L42,17.4995898 C42,16.8556445 41.4785547,16.3329687 40.8333789,16.3329687 Z M39.6666211,20.9997266 L30.3332422,20.9997266 L30.3332422,18.6663477 L39.6666211,18.6663477 L39.6666211,20.9997266 Z" id="Shape" fill="#FFFFFF"></path>
                    </g>
                </g>
            </g>
        </g>
    </g>
</svg>