<?xml version="1.0" encoding="UTF-8"?>
<svg width="22px" height="57px" viewBox="0 0 22 57" version="1.1" xmlns="http://www.w3.org/2000/svg" xmlns:xlink="http://www.w3.org/1999/xlink">
    <!-- Generator: Sketch 49 (51002) - http://www.bohemiancoding.com/sketch -->
    <title>Mouse icon</title>
    <desc>Created with Sketch.</desc>
    <defs></defs>
    <g id="Page-1" stroke="none" stroke-width="1" fill="none" fill-rule="evenodd">
        <g id="Главная" transform="translate(-789.000000, -658.000000)" fill="#FFFFFF">
            <g id="Первый-экран">
                <g id="Mouse-icon" transform="translate(789.000000, 658.000000)">
                    <g id="Group-13">
                        <path d="M11,1 C5.4771525,1 1,5.4771525 1,11 L1,26 C1,31.5228475 5.4771525,36 11,36 C16.5228475,36 21,31.5228475 21,26 L21,11 C21,5.4771525 16.5228475,1 11,1 Z M11,0 C17.0751322,-1.11598369e-15 22,4.92486775 22,11 L22,26 C22,32.0751322 17.0751322,37 11,37 C4.92486775,37 7.43989126e-16,32.0751322 0,26 L0,11 C-7.43989126e-16,4.92486775 4.92486775,1.11598369e-15 11,0 Z" id="Rectangle-2" fill-rule="nonzero"></path>
                        <rect id="Rectangle-3" x="10" y="7" width="2" height="6" rx="1"></rect>
                    </g>
                    <g id="Group-Copy" transform="translate(4.000000, 49.000000)">
                        <rect id="Rectangle-6" transform="translate(3.889087, 3.889087) rotate(45.000000) translate(-3.889087, -3.889087) " x="-1.1109127" y="3.3890873" width="10" height="1" rx="0.5"></rect>
                        <rect id="Rectangle-6" transform="translate(10.289112, 3.889087) scale(1, -1) rotate(45.000000) translate(-10.289112, -3.889087) " x="5.28911171" y="3.3890873" width="10" height="1" rx="0.5"></rect>
                    </g>
                    <g id="Group" transform="translate(4.000000, 41.000000)">
                        <rect id="Rectangle-6" transform="translate(3.889087, 3.889087) rotate(45.000000) translate(-3.889087, -3.889087) " x="-1.1109127" y="3.3890873" width="10" height="1" rx="0.5"></rect>
                        <rect id="Rectangle-6" transform="translate(10.289112, 3.889087) scale(1, -1) rotate(45.000000) translate(-10.289112, -3.889087) " x="5.28911171" y="3.3890873" width="10" height="1" rx="0.5"></rect>
                    </g>
                </g>
            </g>
        </g>
    </g>
</svg>